<?xml version="1.0" standalone="no"?>
<!DOCTYPE svg PUBLIC "-//W3C//DTD SVG 20010904//EN"
 "http://www.w3.org/TR/2001/REC-SVG-20010904/DTD/svg10.dtd">
<svg version="1.0" xmlns="http://www.w3.org/2000/svg"
 width="792.000000pt" height="792.000000pt" viewBox="0 0 792.000000 792.000000"
 preserveAspectRatio="xMidYMid meet">
<metadata>
Created by potrace 1.14, written by Peter Selinger 2001-2017
</metadata>
<g transform="translate(0.000000,792.000000) scale(0.100000,-0.100000)"
fill="#000000" stroke="none">
<path d="M3615 7745 c-844 -78 -1590 -378 -2227 -897 -133 -108 -403 -375
-509 -503 -204 -245 -350 -467 -484 -735 -206 -410 -325 -818 -377 -1285 -17
-155 -17 -575 0 -730 84 -760 362 -1413 856 -2015 89 -109 364 -384 481 -481
553 -461 1218 -765 1930 -883 242 -40 379 -51 675 -51 380 0 636 30 968 111
979 240 1813 814 2362 1629 289 428 488 922 574 1425 42 247 51 352 51 630 0
278 -9 383 -51 630 -108 632 -385 1227 -812 1743 -94 114 -367 388 -487 489
-500 419 -1118 717 -1770 852 -376 78 -816 104 -1180 71z m785 -30 c484 -52
929 -182 1370 -401 397 -198 682 -400 999 -709 625 -610 1005 -1375 1108
-2235 21 -176 24 -610 5 -775 -54 -477 -174 -880 -382 -1290 -125 -247 -235
-418 -421 -653 -115 -145 -373 -407 -527 -537 -884 -739 -2039 -1060 -3200
-890 -712 105 -1412 416 -1963 872 -227 187 -515 498 -691 744 -180 252 -355
588 -462 885 -317 886 -281 1854 100 2714 194 436 429 775 784 1131 322 323
616 535 1020 737 511 256 961 376 1595 426 103 8 525 -4 665 -19z"/>
<path d="M3783 6823 c-20 -4 -23 -11 -23 -46 0 -23 5 -505 10 -1072 9 -974 8
-1034 -8 -1105 l-18 -75 -7 520 c-4 286 -10 789 -13 1118 -7 565 -8 597 -25
597 -44 0 -431 -71 -494 -90 -162 -51 -335 -168 -496 -337 -226 -237 -376
-601 -404 -983 -20 -264 -107 -855 -134 -908 -11 -21 -75 -112 -142 -203 -132
-177 -410 -593 -503 -752 -136 -231 -429 -930 -491 -1168 l-27 -106 34 -55
c51 -78 227 -288 336 -398 72 -73 95 -91 101 -80 5 8 14 51 21 95 51 336 141
672 257 960 293 731 389 907 633 1158 90 93 117 114 186 148 111 54 216 79
359 86 139 7 209 -7 315 -60 116 -57 288 -213 402 -362 57 -75 162 -176 208
-201 46 -24 152 -25 196 -2 51 28 142 116 222 218 183 229 370 368 540 401
139 26 371 -7 519 -76 166 -77 403 -366 566 -692 55 -109 306 -727 348 -858
54 -165 113 -407 149 -610 17 -93 33 -181 36 -194 5 -23 12 -18 101 70 106
105 269 295 332 388 40 59 41 61 31 108 -32 143 -117 374 -273 738 -122 286
-165 375 -242 505 -101 169 -371 573 -500 745 -62 83 -123 170 -135 195 -16
30 -31 95 -46 200 -38 249 -74 533 -89 703 -25 265 -71 439 -175 652 -72 150
-159 272 -264 373 -179 171 -315 259 -477 306 -84 24 -485 94 -493 85 -3 -3
-23 -1535 -27 -2099 l-1 -135 -19 75 c-19 73 -19 107 -10 1145 6 588 8 1072 5
1075 -7 6 -341 10 -371 3z m-519 -2382 c125 -35 194 -67 273 -127 41 -31 72
-59 69 -61 -2 -2 -30 9 -62 25 -184 92 -428 141 -616 121 -126 -12 -204 -37
-393 -126 -311 -145 -315 -146 -168 -45 148 100 353 197 488 227 91 21 309 13
409 -14z m1832 4 c121 -30 340 -136 467 -225 49 -34 87 -64 84 -66 -2 -2 -82
34 -178 80 -96 46 -203 95 -239 109 -247 97 -583 71 -854 -65 -32 -16 -60 -27
-62 -25 -6 6 70 67 131 106 47 30 186 79 285 99 25 6 95 10 156 11 88 1 132
-4 210 -24z"/>
<path d="M2840 4079 c-96 -25 -218 -84 -296 -143 -150 -113 -330 -349 -452
-592 -56 -111 -240 -561 -297 -724 -84 -244 -205 -674 -205 -733 l0 -27 38 16
c105 46 294 105 432 135 148 32 164 34 360 34 113 0 221 -4 241 -8 l35 -7 69
-221 69 -221 40 5 c23 2 59 11 80 20 46 17 87 9 123 -25 26 -25 29 -19 9 20
-31 60 -91 82 -145 53 -17 -9 -22 -9 -26 1 -16 43 -296 1021 -293 1024 2 2 82
-191 178 -429 95 -238 181 -451 191 -473 l17 -41 396 396 395 396 -1 65 c-2
111 43 174 136 186 69 10 130 -17 161 -70 20 -34 25 -57 25 -112 l1 -69 394
-398 394 -398 18 43 c11 24 97 238 193 475 95 238 175 431 177 429 2 -2 -273
-970 -292 -1023 -3 -8 -13 -8 -40 1 -20 7 -47 11 -60 8 -28 -5 -70 -48 -80
-82 l-7 -25 24 23 c37 34 78 42 124 25 21 -9 57 -18 79 -20 l40 -5 69 221 69
221 36 7 c20 5 131 8 246 7 198 0 218 -2 355 -32 133 -30 339 -94 433 -136 37
-16 37 -16 37 6 -1 59 -54 257 -167 618 -58 185 -268 712 -341 854 -110 216
-272 434 -411 553 -89 76 -219 143 -335 173 -44 11 -82 18 -84 15 -3 -3 22
-33 55 -67 68 -72 126 -155 173 -247 57 -114 42 -129 -230 -232 -247 -93 -297
-102 -513 -102 -104 1 -191 4 -194 7 -4 3 4 54 16 112 13 58 21 107 19 110 -3
2 -39 -34 -82 -81 -117 -129 -223 -172 -345 -141 -83 21 -126 51 -211 145 -41
44 -75 79 -78 77 -2 -2 6 -52 18 -111 12 -59 20 -109 17 -111 -3 -3 -87 -6
-188 -7 -213 -2 -263 8 -490 91 -262 97 -298 120 -285 185 13 64 131 240 215
322 39 37 50 56 34 54 -5 0 -42 -9 -83 -20z m-45 -687 c146 -119 207 -136 465
-136 152 0 201 4 275 21 50 12 92 19 94 17 7 -7 -124 -64 -195 -85 -152 -45
-397 -35 -511 21 -64 32 -162 127 -234 228 l-33 47 31 -25 c17 -14 66 -53 108
-88z m2458 96 c-167 -221 -243 -278 -404 -299 -102 -14 -272 -6 -354 16 -62
17 -211 82 -204 89 2 2 42 -5 89 -15 125 -29 349 -36 469 -15 123 22 195 58
310 156 89 77 114 95 94 68z m-1180 -169 c53 -28 119 -71 114 -76 -2 -2 -46 8
-98 22 -116 31 -142 31 -253 0 -49 -14 -91 -23 -93 -21 -6 5 44 40 101 70 65
34 166 36 229 5z m-16 -124 c87 -44 84 -56 -7 -31 l-80 21 -80 -21 c-82 -21
-97 -20 -57 6 90 58 145 64 224 25z m-1268 -165 l108 -80 99 27 c85 22 120 26
249 27 159 0 251 -17 353 -65 68 -33 58 -48 -80 -109 -105 -47 -132 -64 -184
-116 -91 -91 -167 -253 -224 -474 -23 -91 -44 -167 -47 -170 -17 -18 40 328
68 411 72 212 181 340 336 394 36 13 61 25 56 28 -4 2 -51 15 -103 27 -116 27
-228 23 -395 -15 -60 -14 -117 -25 -125 -25 -8 0 -65 50 -125 110 -60 61 -106
110 -102 110 4 0 56 -36 116 -80z m2351 -34 l-115 -113 -95 23 c-122 30 -260
48 -330 41 -99 -9 -263 -57 -194 -57 11 0 53 -16 93 -35 176 -85 295 -293 336
-585 35 -259 34 -260 -29 -24 -64 243 -148 413 -245 495 -22 19 -94 58 -160
88 -166 75 -163 90 26 147 79 25 103 27 243 27 136 0 167 -3 254 -26 l99 -27
106 80 c58 43 111 79 116 79 6 0 -42 -50 -105 -113z"/>
<path d="M3870 2060 l0 -350 90 0 90 0 -2 348 -3 347 -87 3 -88 3 0 -351z"/>
<path d="M3682 2266 l-72 -74 2 -239 3 -238 73 -3 72 -3 0 316 c0 173 -1 315
-3 315 -2 0 -36 -33 -75 -74z"/>
<path d="M4160 2027 l0 -317 70 0 70 0 0 248 0 248 -70 69 -70 69 0 -317z"/>
<path d="M3417 2032 l-67 -68 0 -127 0 -127 70 0 70 0 0 195 c0 107 -1 195 -3
195 -1 0 -33 -30 -70 -68z"/>
<path d="M4430 1907 l0 -197 70 0 70 0 0 128 0 128 -70 69 -70 69 0 -197z"/>
<path d="M3150 1628 c0 -7 5 -30 11 -50 l10 -38 775 0 774 0 10 25 c5 14 13
37 16 50 l6 25 -801 0 c-634 0 -801 -3 -801 -12z"/>
<path d="M3201 1486 c2 -2 174 -92 381 -200 356 -186 378 -196 400 -183 13 8
178 97 368 197 190 100 347 184 349 186 2 2 -335 4 -749 4 -414 0 -751 -2
-749 -4z"/>
</g>
</svg>
